<svg version="1" xmlns="http://www.w3.org/2000/svg" width="682.667" height="682.667" viewBox="0 0 512.000000 512.000000"><path d="M240.5 114.7c-6.5.8-22.4 4.4-30 6.9-14.3 4.6-34.8 16-44.8 24.7-29.2 25.7-44.4 53-50.2 89.7-1.4 8.4-1.4 35.1 0 41.5 1.6 8 4.6 20.3 5.4 22.5 3.9 10.6 6.9 17.5 10.3 23.5 5.6 10.1 5.7 10.2 12.4 19 22.8 29.7 56.6 49.3 93.9 54.4 10.4 1.4 35.6.7 45-1.3 16.4-3.4 34.4-10.2 45-17 3-2 5.8-3.6 6.1-3.6.5 0 11.9-8.5 14-10.5.6-.5 3.4-3.2 6.3-5.8 11.4-10.6 23.3-26.9 30-41 3.4-7.2 9.2-22.9 9.6-26.2.2-1.1.7-3.8 1.3-6 .6-2.2 1.4-5.6 1.7-7.5 1.1-5.5 1.4-35.1.5-40-.5-2.5-1-5.9-1.3-7.5-2-12.3-6-24.1-12.8-38-8.2-16.8-20.3-32.1-35.5-45.1-7.1-6.1-20.5-14.9-28.3-18.5-3.6-1.7-7.4-3.5-8.4-4.1-2.7-1.4-19.3-6.4-25.7-7.7-3-.6-6.6-1.4-8-1.7-2.9-.7-32-1.2-36.5-.7z"/></svg>